<svg focusable="false" xmlns="http://www.w3.org/2000/svg" fill="none" viewBox="0 0 15 17">
  <path fill="currentColor" d="M5.721 8.721c0-.15.05-.28.151-.388a.509.509 0 0 1 .375-.161h6.108l1.107.048L13 7.768l-1.298-1.253a.49.49 0 0 1-.16-.38c0-.14.046-.258.136-.355a.448.448 0 0 1 .342-.146c.133 0 .253.057.359.17l2.413 2.521c.074.065.124.13.15.194a.526.526 0 0 1 0 .404.607.607 0 0 1-.15.202l-2.413 2.538a.492.492 0 0 1-.359.161.46.46 0 0 1-.342-.137.513.513 0 0 1-.136-.364c0-.156.053-.285.16-.388L13 9.691l.47-.46-1.115.048H6.247a.509.509 0 0 1-.375-.162.576.576 0 0 1-.15-.396Zm4.738 1.932v4.113c0 .598-.183 1.075-.55 1.43-.365.356-.851.533-1.456.533H2.998c-.611 0-1.1-.177-1.466-.533-.366-.356-.55-.832-.55-1.43V2.693c0-.593.184-1.067.55-1.422C1.9.91 2.387.729 2.998.729h5.455c.605 0 1.09.18 1.457.542.366.355.55.83.55 1.422v4.105h-1.1V2.871c0-.334-.09-.587-.27-.76-.18-.178-.441-.266-.78-.266H3.132c-.345 0-.605.088-.78.266-.176.173-.263.426-.263.76v11.717c0 .334.087.587.262.76.176.177.436.266.78.266H8.31c.34 0 .6-.089.78-.266.181-.173.271-.426.271-.76v-3.935h1.1Z"/>
</svg>
